<?xml version="1.0" encoding="UTF-8"?>
<svg xmlns="http://www.w3.org/2000/svg" xmlns:xlink="http://www.w3.org/1999/xlink" width="80px" height="48px" viewBox="0 0 79 48" version="1.1">
<defs>
<linearGradient id="linear0" gradientUnits="userSpaceOnUse" x1="-0.02778" y1="0.32" x2="1" y2="0.67556" gradientTransform="matrix(79,0,0,47.875,0,0.0625)">
<stop offset="0" style="stop-color:rgb(13.333333%,59.607843%,74.117647%);stop-opacity:1;"/>
<stop offset="1" style="stop-color:rgb(5.490196%,84.313725%,70.980392%);stop-opacity:1;"/>
</linearGradient>
</defs>
<g id="surface1">
<path style=" stroke:none;fill-rule:nonzero;fill:url(#linear0);" d="M 39.5 0.0625 C 28.964844 0.0625 22.382812 5.382812 19.75 16.019531 C 23.699219 10.703125 28.308594 8.707031 33.574219 10.039062 C 36.578125 10.796875 38.726562 12.996094 41.105469 15.433594 C 44.976562 19.40625 49.460938 24 59.25 24 C 69.785156 24 76.367188 18.679688 79 8.042969 C 75.050781 13.363281 70.441406 15.355469 65.175781 14.027344 C 62.171875 13.269531 60.023438 11.066406 57.644531 8.628906 C 53.773438 4.660156 49.289062 0.0625 39.5 0.0625 Z M 19.75 24 C 9.214844 24 2.632812 29.320312 0 39.957031 C 3.949219 34.636719 8.558594 32.644531 13.824219 33.972656 C 16.828125 34.730469 18.976562 36.933594 21.355469 39.371094 C 25.226562 43.339844 29.710938 47.9375 39.5 47.9375 C 50.035156 47.9375 56.617188 42.617188 59.25 31.980469 C 55.300781 37.296875 50.691406 39.292969 45.425781 37.960938 C 42.421875 37.203125 40.273438 35.003906 37.894531 32.566406 C 34.023438 28.59375 29.539062 24 19.75 24 Z M 19.75 24 "/>
</g>
</svg>
